<svg width="289" height="77" viewBox="0 0 289 77" fill="none" xmlns="http://www.w3.org/2000/svg">
<path d="M180.394 17.584H166.376V22.9847H180.394V17.584Z" fill="#ECECEB"/>
<path d="M172.494 55.2834L158.423 56.2644L159.52 76.77L220.383 76.9704L220.931 67.034L174.424 65.61L172.494 55.2834Z" fill="#5C7A89"/>
<path d="M38.2686 32.9002L39.8087 42.056L48.5636 40.4738V31.7504L38.2686 32.9002Z" fill="#4E6A75"/>
<path d="M47.4456 8.17542L48.5638 17.4894V8.30199L47.4456 8.17542Z" fill="#4E6A75"/>
<path d="M48.5642 8.30199L57.4563 9.28297L53.0788 25.0736L56.8445 32.9636L57.5618 39.9043V8.17542H48.5642V8.30199Z" fill="#5C7A89"/>
<path d="M55.5365 39.2079L48.5642 40.4737V71.8861H57.5618V39.9041L56.6652 43.3744L55.5365 39.2079Z" fill="#5C7A89"/>
<path d="M53.0788 25.0734L57.4563 9.2828L48.5642 8.30182V17.4893V31.7504V40.4737L55.5365 39.2079L56.6652 43.3745L57.5618 39.9041L56.8445 32.9634L53.0788 25.0734Z" fill="#5C7A89"/>
<path d="M72.3815 5.73853H63.3945V76.9703H72.3815V5.73853Z" fill="#5C7A89"/>
<path d="M173.465 36.6133C184.53 36.6133 193.285 30.9595 193.285 21.2657C193.285 11.5719 184.319 3.703 173.254 3.703C162.189 3.703 153.223 11.5614 153.223 21.2657C153.223 30.97 162.4 36.6133 173.465 36.6133V36.6133ZM166.376 17.5949H180.395V22.9956H166.376V17.5949Z" fill="#5C7A89"/>
<path d="M288.566 6.00244H275.961V76.9705H288.566V6.00244Z" fill="#5C7A89"/>
<path d="M213.337 37.3199L216.744 36.4866L222.039 34.8622L222.746 23.101L213.337 25.3372V37.3199Z" fill="#4E6A75"/>
<path d="M211.85 55.062L208.221 55.6527L201.987 56.3173V52.2562L203.485 24.6517L203.959 6.29785L212.725 6.0025L212.366 11.92L210.594 25.0947L211.544 25.7592L213.337 25.3373V3.703H200.732V58.2159H213.337V37.32L212.799 37.4571L211.85 55.062Z" fill="#5C7A89"/>
<path d="M211.543 25.7592L210.594 25.0946L212.366 11.92L212.725 6.00244L203.959 6.29779L203.485 24.6516L201.987 52.2562V56.3172L208.221 55.6527L211.849 55.062L212.799 37.4571L213.336 37.3199V25.3372L211.543 25.7592Z" fill="#5C7A89"/>
<path d="M78.8578 55.1147H106.905V56.3804L107.475 76.3587H121.641L119.532 55.1147H147.326V44.5876H78.8578V55.1147Z" fill="#5C7A89"/>
<path d="M241.943 50.4632L240.973 12.0995H229.286L228.684 61.5177L272.006 58.2161L271.573 48.5012L241.943 50.4632Z" fill="#5C7A89"/>
<path d="M31.2018 20.2846C31.2018 20.2846 31.0541 21.6347 30.9908 23.8604H42.5094V13.7447H10.4113V23.8709H20.622V18.8078L31.2018 20.2846Z" fill="#5C7A89"/>
<path d="M84.5963 32.9633L89.5856 40.2626C89.5856 40.2626 104.669 36.4758 112.707 27.9634C117.369 34.4506 137.369 40.2626 137.369 40.2626L144.584 31.9506C129.363 29.282 123.35 23.3433 120.977 18.9659H140.059V8.43878H86.2207V18.9659H101.463L106.02 17.7845L104.627 22.9742L84.5963 32.9527V32.9633Z" fill="#5C7A89"/>
<path d="M199.191 49.5979V39.7143L180.827 41.4442V44.5875L169.15 45.9799V41.3809L150.628 41.2016L151.946 51.5915L190.215 50.389L199.191 49.5979Z" fill="#5C7A89"/>
<path d="M180.827 41.4442V37.6996H169.15V41.381L180.395 41.4864L180.827 41.4442Z" fill="#5C7A89"/>
<path d="M180.827 44.5876V41.4442L180.395 41.4864L169.15 41.3809V45.9799L180.827 44.5876Z" fill="#5C7A89"/>
<path d="M32.3092 40.2628C30.9696 33.8495 30.8747 27.6155 30.9907 23.8604H20.6324V37.689L17.3203 46.8448L6.1076 57.2664L14.2613 65.61C14.2613 65.61 23.9656 58.6904 25.2209 51.5915C25.2209 51.5915 36.6656 64.9666 38.1213 64.4391C39.5769 63.9117 45.2518 56.3276 45.2518 56.3276C45.2518 56.3276 34.672 51.5915 32.3092 40.2733V40.2628Z" fill="#5C7A89"/>
<path d="M31.2015 20.2845L20.6217 18.8078V23.8709H30.98C31.0538 21.6453 31.191 20.2951 31.191 20.2951L31.2015 20.2845Z" fill="#5C7A89"/>
<path d="M142.569 1.59326C142.717 2.71137 142.179 3.13329 141.05 3.13329C140.058 3.13329 139.436 2.91178 139.499 1.73039C139.563 0.527897 140.069 0.0215846 141.303 0.000488269C142.432 -0.0206081 142.643 0.643926 142.569 1.60381V1.59326Z" fill="#5C7A89"/>
<path d="M14.9045 9.28273C14.8623 10.5063 13.9868 11.4346 13.0269 11.424C12.2886 11.4135 11.4658 10.4536 11.4658 9.59917C11.4658 8.66039 12.3624 7.91147 13.4278 7.93256C14.4088 7.95366 14.8623 8.47052 14.9045 9.27218V9.28273Z" fill="#5C7A89"/>
<path d="M0 9.09283C0 8.1013 0.421927 7.47896 1.47674 7.43677C2.36279 7.40512 3.69186 8.4072 3.41761 9.01899C3.09061 9.76791 2.40498 10.5379 1.67716 10.8649C0.959883 11.2025 0 10.0527 0 9.09283Z" fill="#5C7A89"/>
<path d="M9.64119 1.65674C9.78886 2.77484 9.25091 3.19677 8.12225 3.19677C7.13073 3.19677 6.50838 2.97526 6.57167 1.79386C6.63496 0.591373 7.14127 0.0850612 8.37541 0.0639648C9.50406 0.0428685 9.71503 0.707403 9.64119 1.66729V1.65674Z" fill="#5C7A89"/>
<path d="M155.132 59.5659C155.09 60.7895 154.214 61.7177 153.254 61.7071C152.516 61.6966 151.693 60.7367 151.693 59.8823C151.693 58.9435 152.59 58.1946 153.655 58.2157C154.636 58.2368 155.09 58.7537 155.132 59.5553V59.5659Z" fill="#5C7A89"/>
<path d="M173.243 3.44971C162.336 3.44971 153.507 11.1921 153.507 20.7487C153.507 30.3053 162.557 35.8748 173.454 35.8748C184.35 35.8748 192.978 30.3053 192.978 20.7487C192.978 11.1921 184.139 3.44971 173.243 3.44971V3.44971Z" fill="#5C7A89"/>
<path d="M181.924 23.0796C181.787 25.5585 180.49 27.2567 178.243 28.1639C176.946 28.6913 175.564 29.2292 174.193 29.3242C171.629 29.5035 169.172 28.8706 167.273 27.0036C166.397 26.1386 165.68 25.0627 165.659 23.6914C165.649 23.0163 166.102 22.1936 166.661 22.0987C167.336 21.9932 168.001 22.5733 168.075 23.375C168.233 24.8728 169.277 25.6323 170.48 26.2019C170.975 26.4445 171.566 26.5816 172.115 26.6133C173.971 26.7082 175.838 26.8348 177.536 25.8222C178.549 25.2209 179.403 24.5564 179.498 23.2168C179.593 21.7717 179.867 21.4869 180.827 21.4763C181.766 21.4763 181.914 21.624 181.935 22.5628C181.935 22.7315 181.935 22.8898 181.935 23.0585L181.924 23.0796Z" fill="white"/>
<path d="M168.001 18.5229C168.127 17.7529 168.201 16.9617 168.412 16.2128C168.623 15.4323 169.161 15.1475 169.815 15.3268C170.501 15.5166 170.828 16.1917 170.785 16.9195C170.722 18.0482 170.701 19.198 170.838 20.3266C170.975 21.4236 171.608 21.835 172.695 21.9088C174.773 22.0354 175.595 21.7823 175.469 19.0714C175.427 18.0798 175.184 17.0883 174.983 16.0968C174.857 15.485 175.173 14.7677 175.743 14.5673C176.407 14.3352 176.903 14.599 177.199 15.3162C178.042 17.3942 178.232 19.5249 177.61 21.6979C177.209 23.0797 176.144 23.9868 174.846 24.2611C173.159 24.6092 171.408 24.5564 169.899 23.4383C168.739 22.5734 168.37 21.297 168.148 19.9574C168.074 19.5039 168.138 19.0292 168.138 18.5651L168.001 18.544V18.5229Z" fill="white"/>
<path d="M163.022 16.7406C163.982 16.7406 164.446 17.1625 164.478 18.0802C164.499 18.9452 163.686 19.7679 162.822 19.7468C162.02 19.7257 161.429 19.135 161.419 18.3439C161.419 17.384 162.052 16.7511 163.022 16.7406V16.7406Z" fill="white"/>
<path d="M183.907 17.025C183.907 17.8794 183.264 18.6178 182.505 18.6389C181.661 18.66 181.081 18.0693 181.081 17.1938C181.081 16.2444 181.682 15.6326 182.589 15.6326C183.496 15.6326 183.907 16.0651 183.907 17.025Z" fill="white"/>
</svg>
