<svg width="34" height="34" viewBox="0 0 34 34" fill="none" xmlns="http://www.w3.org/2000/svg">
<path d="M19.3373 16.8181L33.2926 30.7734C33.9243 31.4052 33.9243 32.4295 33.2926 33.0612C32.6608 33.693 31.6365 33.693 31.0047 33.0612L17.0495 19.106L3.09422 33.0612C2.46245 33.693 1.43813 33.693 0.806353 33.0612C0.174575 32.4295 0.174575 31.4052 0.806353 30.7734L14.7616 16.8181L0.806353 2.8629C0.174575 2.23112 0.174575 1.20681 0.806353 0.57503C1.43813 -0.0567482 2.46245 -0.0567482 3.09422 0.57503L17.0495 14.5303L31.0047 0.57503C31.6365 -0.0567482 32.6608 -0.0567482 33.2926 0.57503C33.9243 1.20681 33.9243 2.23112 33.2926 2.8629L19.3373 16.8181Z" fill="#1A051D"/>
</svg>
