<svg width="31" height="31" viewBox="0 0 31 31" fill="none" xmlns="http://www.w3.org/2000/svg">
<path d="M21.9861 7.54959C26.6746 7.55479 30.4742 11.3543 30.4794 16.0429C30.4794 19.0986 27.9257 23.3226 22.6769 28.9546C22.4983 29.1464 22.2481 29.2553 21.9861 29.2553C21.724 29.2553 21.4738 29.1464 21.2953 28.9546C16.0464 23.3226 13.4928 19.0986 13.4928 16.0429C13.498 11.3543 17.2975 7.55479 21.9861 7.54959ZM21.9861 18.874C23.5496 18.874 24.8172 17.6064 24.8172 16.0429C24.8172 14.4793 23.5496 13.2118 21.9861 13.2118C20.4225 13.2118 19.155 14.4793 19.155 16.0429C19.155 17.6064 20.4225 18.874 21.9861 18.874ZM6.88689 0C10.5352 0 13.4928 2.95756 13.4928 6.60589C13.4928 8.95381 11.562 12.2454 7.58901 16.6733C7.41002 16.8726 7.15477 16.9864 6.88689 16.9864C6.61902 16.9864 6.36377 16.8726 6.18478 16.6733C2.21181 12.2454 0.281006 8.95381 0.281006 6.60589C0.281006 2.95756 3.23856 0 6.88689 0ZM6.88689 8.49329C7.38746 8.49329 7.86753 8.29444 8.22149 7.94048C8.57544 7.58652 8.77429 7.10646 8.77429 6.60589C8.77429 5.56351 7.92928 4.71849 6.88689 4.71849C5.84451 4.71849 4.9995 5.56351 4.9995 6.60589C4.9995 7.64827 5.84451 8.49329 6.88689 8.49329ZM13.4928 30.1983C8.28347 30.1921 4.06204 25.9707 4.0558 20.7614C4.0558 19.719 4.90082 18.874 5.9432 18.874C6.98558 18.874 7.83059 19.719 7.83059 20.7614C7.83059 23.8885 10.3656 26.4236 13.4928 26.4236C14.5352 26.4236 15.3802 27.2686 15.3802 28.311C15.3802 29.3533 14.5352 30.1983 13.4928 30.1983Z" fill="#1A051D"/>
</svg>
