<svg width="67" height="67" viewBox="0 0 67 67" fill="none" xmlns="http://www.w3.org/2000/svg">
<path d="M33.5 54.6992C27.4805 50.4245 22.8132 46.8913 19.498 44.0996C16.0957 41.3079 13.3913 38.3418 11.3848 35.2012C9.37826 32.0605 8.375 28.7018 8.375 25.125C8.375 21.7227 9.63997 18.8001 12.1699 16.3574C14.6126 13.8275 17.5352 12.5625 20.9375 12.5625C24.3398 12.5625 27.306 13.8275 29.8359 16.3574C32.2786 18.8001 33.5 21.7227 33.5 25.125C33.5 21.7227 34.765 18.8001 37.2949 16.3574C39.7376 13.8275 42.6602 12.5625 46.0625 12.5625C49.4648 12.5625 52.431 13.8275 54.9609 16.3574C57.4036 18.8001 58.625 21.7227 58.625 25.125C58.625 28.7891 57.6217 32.235 55.6152 35.4629C53.5215 38.6035 50.8171 41.5697 47.502 44.3613C44.0996 47.153 39.4323 50.599 33.5 54.6992Z" fill="#5C7A89"/>
</svg>
