<svg xmlns="http://www.w3.org/2000/svg" viewBox="0 0 93.59 93.59"><defs><style>.cls-1{fill:#324d9f;}.cls-2{fill:#fff;}</style></defs><g id="레이어_2" data-name="레이어 2"><g id="레이어_1-2" data-name="레이어 1"><circle class="cls-1" cx="46.8" cy="46.8" r="46.8"/><path class="cls-2" d="M42.1,45.59c-4.71-.2-8.58-.32-12.45-.53-1.48-.09-3-.38-4.44-.6a1.64,1.64,0,0,1-1.62-1.71,1.5,1.5,0,0,1,1.66-1.53c2,.13,4,.15,6,.41,5.92.8,11.86.32,17.79.33a68.43,68.43,0,0,0,7.65-.8c1.79-.2,3.59-.37,5.37-.68s3.66-.8,5.5-1.18a18.28,18.28,0,0,1,3.58-.57c.48,0,1.15.62,1.42,1.13a1.23,1.23,0,0,1-.71,1.65A6.51,6.51,0,0,1,70.3,42l-6.71,1.45a29.06,29.06,0,0,1-2.87.56q-5.82.61-11.64,1.12C46.48,45.35,43.87,45.47,42.1,45.59Z"/><path class="cls-2" d="M46.56,72.57a49.73,49.73,0,0,1-11.78-1.33A15.33,15.33,0,0,1,27,67.29c-.29-.28-.61-.91-.49-1.18a1.84,1.84,0,0,1,1.17-1,2.93,2.93,0,0,1,1.84.47,17.08,17.08,0,0,0,8.54,3.11c3.39.33,6.79.68,10.2.74a38.79,38.79,0,0,0,6.32-.69,64.47,64.47,0,0,0,6.35-1.16,17,17,0,0,0,7.29-3.67,7.29,7.29,0,0,1,.81-.66c1.3-.83,1.82-.76,2.58.55a1.38,1.38,0,0,1-.17,1.28,15.74,15.74,0,0,1-5.53,4,23.52,23.52,0,0,1-7.14,2.15c-2.83.3-5.62.93-8.44,1.3A29.6,29.6,0,0,1,46.56,72.57Z"/><path class="cls-2" d="M60.32,25.38h4.51c.82,0,1.44.24,1.51,1.21a1.37,1.37,0,0,1-1.23,1.64,11.92,11.92,0,0,1-1.86.27c-2.06.05-4.13,0-6.19.07q-10.62.45-21.23,1c-2.82.13-5.63.33-8.45.46a1.46,1.46,0,0,1-1.64-1.46,1.65,1.65,0,0,1,1.53-1.65q4.13-.23,8.25-.42c6.69-.33,13.38-.67,20.08-1,1.57-.07,3.14,0,4.72,0Z"/><path class="cls-2" d="M60.33,59.06a7,7,0,0,1-4.7,6.5A17.67,17.67,0,0,1,50.47,67a11.06,11.06,0,0,1-8.84-3,6.12,6.12,0,0,1-2.07-4.22c0-.86.57-1.92,1.28-2a1.7,1.7,0,0,1,1.81,1.62c.2,1.91,1.53,2.88,3.07,3.62a5.55,5.55,0,0,0,2.09.52c2.36.12,4.75.28,6.92-1,1.29-.77,2.39-1.62,2.5-3.32S57.7,57,58.92,57s1.4.18,1.41,1.39C60.34,58.64,60.33,58.85,60.33,59.06Z"/><path class="cls-2" d="M42.55,53.24c.17-1,.26-2,.52-3a1.37,1.37,0,0,1,1.79-1.13,1.86,1.86,0,0,1,1.24,2,24.18,24.18,0,0,0,.06,4.34c.18,1.41,1,1.93,2.38,2,2.65.17,3.7-.16,3.54-3.63a24.54,24.54,0,0,0-.62-3.79,1.74,1.74,0,0,1,1-2,1.36,1.36,0,0,1,1.86,1,12.19,12.19,0,0,1,.52,8.14,4.56,4.56,0,0,1-3.53,3.27,7.56,7.56,0,0,1-6.31-1A6.46,6.46,0,0,1,42.73,55a11.61,11.61,0,0,1,0-1.77Z"/><path class="cls-2" d="M36.2,51c1.22,0,1.82.54,1.85,1.71a2.18,2.18,0,0,1-2.12,2.13A1.77,1.77,0,0,1,34.15,53,1.92,1.92,0,0,1,36.2,51Z"/><path class="cls-2" d="M62.86,51.33a2,2,0,0,1-1.79,2.06,1.71,1.71,0,0,1-1.82-1.84,1.84,1.84,0,0,1,1.92-2C62.34,49.56,62.85,50.1,62.86,51.33Z"/><path class="cls-2" d="M59.29,22.38a1.08,1.08,0,0,1-1.17,1.09,2,2,0,0,1-1.81-1.91c0-.88.47-1.28,1.51-1.28C58.68,20.29,59.31,21,59.29,22.38Z"/><path class="cls-2" d="M52.3,20.22c0,.76-.59,1.21-1.53,1.21a1.45,1.45,0,1,1-.16-2.9A1.81,1.81,0,0,1,52.3,20.22Z"/><path class="cls-2" d="M57.77,18.52a1.7,1.7,0,0,1-1.65-1.74c0-.9.62-1.19,1.37-1.21a1.81,1.81,0,0,1,1.71,1.64A1.32,1.32,0,0,1,57.77,18.52Z"/><path class="cls-2" d="M29.15,37.55c1,0,1.55.49,1.57,1.39a1.38,1.38,0,0,1-1.4,1.57,1.79,1.79,0,0,1-1.51-1.71A1.19,1.19,0,0,1,29.15,37.55Z"/><path class="cls-2" d="M31.93,36.48a2.14,2.14,0,0,1-1.6-1.66c0-.87.53-1.21,1.33-1.23a1.45,1.45,0,1,1,.27,2.89Z"/></g></g></svg>