<svg width="343" height="87" viewBox="0 0 343 87" fill="none" xmlns="http://www.w3.org/2000/svg">
<mask id="mask0_74_9751" style="mask-type:alpha" maskUnits="userSpaceOnUse" x="0" y="0" width="343" height="87">
<path d="M163.26 64.7248L178.342 63.6743L180.413 74.7344L230.251 76.2651L229.666 86.92L164.446 86.6949L163.26 64.7248Z" fill="#5C7A89"/>
<path d="M44.3454 13.191L45.5459 23.1856V38.4627L34.5009 39.6932L36.1516 49.4927L53.0044 46.4463L54.2199 50.9034L55.1804 47.1967L54.4 39.7533L50.3782 31.3044L55.0603 14.3916L44.3454 13.191Z" fill="#4E6A75"/>
<path d="M55.1805 13.191H45.5461V81.4725H55.1805V13.191Z" fill="#5C7A89"/>
<path d="M71.0576 10.5798H61.4232V86.92H71.0576V10.5798Z" fill="#5C7A89"/>
<path d="M179.153 8.40381C167.297 8.40381 157.678 16.8227 157.678 27.2225C157.678 37.6223 167.522 43.7301 179.378 43.7301C191.233 43.7301 200.612 37.7273 200.612 27.2225C200.612 16.7176 191.008 8.40381 179.153 8.40381ZM171.784 29.0683V23.2757H186.791V29.0683H171.784Z" fill="#5C7A89"/>
<path d="M212.062 11.1801L211.552 30.8542L209.946 60.4328V64.7848L216.625 64.0795L220.526 63.4342L221.532 44.5705L225.764 43.535L231.436 41.7942L232.187 29.1884L220.181 32.0397L219.161 31.3194L221.067 17.2129L221.457 10.865L212.062 11.1801Z" fill="#4E6A75"/>
<path d="M222.102 8.40381H208.596V66.8257H222.102V8.40381Z" fill="#5C7A89"/>
<path d="M151.375 52.209H78.0059V63.4942H108.05V64.8448L108.665 86.2597H123.852L121.586 63.4942H151.375V52.209Z" fill="#5C7A89"/>
<path d="M39.0481 19.1638H4.65228V30.0138H39.0481V19.1638Z" fill="#5C7A89"/>
<path d="M123.132 24.7614H143.586V13.5062H85.8996V24.7614H102.227L107.104 23.5008L105.604 29.0534L84.1438 39.7533L89.4863 47.5869C89.4863 47.5869 105.649 43.52 114.263 34.3958C119.275 41.359 140.69 47.5869 140.69 47.5869L148.433 38.6728C132.061 35.8065 125.683 29.4436 123.132 24.7614Z" fill="#5C7A89"/>
<path d="M154.901 48.5924L156.327 59.7125L197.326 58.4219L206.96 57.5815V46.9866L186.806 48.8925L154.901 48.5924Z" fill="#5C7A89"/>
<path d="M174.755 44.8256V53.7097L187.271 52.209V44.8256H174.755Z" fill="#5C7A89"/>
<path d="M15.5922 24.5813V44.8256L12.0055 54.6401L0 65.8053L8.77904 74.7344C8.77904 74.7344 19.1788 67.321 20.5144 59.7275C20.5144 59.7275 32.7751 74.0591 34.3358 73.4888C35.8965 72.9185 42.0193 64.7848 42.0193 64.7848C42.0193 64.7848 30.6891 59.7125 28.153 47.5869C26.7786 40.5366 26.3797 33.3309 26.9674 26.172L15.5922 24.5813Z" fill="#5C7A89"/>
<path d="M338.511 45.2909C337.918 46.255 337.266 47.1821 336.56 48.0671C336.351 48.232 336.108 48.3485 335.848 48.4082C335.589 48.4679 335.319 48.4693 335.059 48.4123C334.384 48.2322 333.439 48.0221 333.559 46.9116C333.629 46.1079 333.8 45.3162 334.069 44.5555C334.639 43.1749 335.375 41.8543 335.96 40.4586C336.11 40.0985 335.96 39.6032 335.885 39.153C335.435 39.3781 334.819 39.4682 334.564 39.8133C333.804 40.9416 333.102 42.1087 332.463 43.3099C332.223 43.7625 331.818 44.1052 331.332 44.2672C330.846 44.4293 330.316 44.3982 329.852 44.1803C328.771 43.8802 328.741 42.8747 328.937 42.0194C329.185 41.1943 329.501 40.3912 329.882 39.6182C330.115 39.0487 330.257 38.446 330.302 37.8324C328.674 38.5436 327.317 39.7588 326.43 41.299C324.179 44.7806 323.264 49.0876 320.082 51.9989C318.553 53.4003 316.901 54.661 315.145 55.7657C313.945 56.516 313.239 55.3755 312.639 54.5201C312.486 54.3418 312.376 54.13 312.32 53.9016C312.263 53.6732 312.261 53.4348 312.314 53.2055C312.366 52.9762 312.472 52.7624 312.622 52.5815C312.773 52.4006 312.963 52.2576 313.179 52.164C314.138 51.6419 315.034 51.0126 315.851 50.2882C317.379 48.442 318.811 46.5186 320.143 44.5255C321.883 41.9743 323.414 39.2731 325.23 36.7819C325.746 36.0183 326.444 35.3958 327.262 34.9711C328.08 34.5465 328.991 34.3333 329.912 34.3508C332.433 34.3508 334.969 34.1407 337.175 35.7014C338.491 36.625 339.609 37.8013 340.464 39.1618C341.319 40.5223 341.895 42.0396 342.158 43.6251C343.343 49.7929 340.657 54.8052 337.25 59.4574C334.299 63.6145 330.795 67.3505 326.836 70.5625C326.062 71.2578 325.399 72.0675 324.87 72.9636C323.924 74.4643 322.694 74.8545 321.553 74.1041C320.052 73.0686 320.052 71.8231 321.688 70.2924C324.9 67.291 328.291 64.3947 331.263 61.1382C334.234 57.8817 336.86 54.8653 338.016 50.7234C338.423 48.9319 338.723 47.1179 338.916 45.2909H338.511Z" fill="#5C7A89"/>
<path d="M266.838 39.3781C260.655 39.123 255.568 38.973 250.51 38.6878C248.559 38.5828 246.623 38.1926 244.673 37.8925C244.386 37.8886 244.103 37.8278 243.841 37.7137C243.578 37.5996 243.341 37.4344 243.142 37.2278C242.944 37.0211 242.789 36.7771 242.686 36.5099C242.583 36.2427 242.534 35.9577 242.542 35.6714C242.536 35.3896 242.59 35.1097 242.701 34.8503C242.811 34.5909 242.975 34.3578 243.182 34.1664C243.389 33.975 243.634 33.8296 243.902 33.7398C244.169 33.65 244.452 33.6179 244.733 33.6455C247.374 33.8256 250.03 33.8406 252.641 34.2008C260.415 35.2362 268.203 34.6059 275.977 34.6209C279.341 34.4641 282.693 34.1133 286.017 33.5705C288.373 33.3153 290.729 33.0902 293.07 32.6851C295.411 32.2799 297.872 31.6346 300.273 31.1844C301.811 30.7812 303.384 30.5299 304.97 30.434C305.616 30.434 306.471 31.2444 306.831 31.9347C306.918 32.1361 306.964 32.353 306.965 32.5725C306.966 32.7919 306.922 33.0093 306.836 33.2113C306.751 33.4134 306.625 33.596 306.467 33.748C306.309 33.9 306.121 34.0183 305.916 34.0957C305.248 34.3895 304.548 34.6011 303.83 34.726L295.021 36.6169C293.779 36.9318 292.522 37.1822 291.254 37.3672C286.167 37.8925 281.079 38.4027 275.992 38.8679C272.57 39.018 269.149 39.2281 266.838 39.3781Z" fill="#5C7A89"/>
<path d="M272.691 74.7794C267.486 74.8187 262.296 74.2292 257.234 73.0236C253.399 72.3316 249.852 70.5317 247.029 67.8462C246.639 67.4711 246.218 66.6607 246.384 66.3455C246.522 66.0294 246.729 65.7475 246.988 65.5194C247.247 65.2913 247.553 65.1225 247.884 65.0249C248.736 64.9474 249.589 65.1646 250.3 65.6402C253.59 67.9939 257.462 69.4006 261.495 69.7071C265.998 70.1423 270.41 70.6075 274.882 70.6975C277.663 70.6161 280.433 70.31 283.165 69.7821C285.97 69.4241 288.755 68.9233 291.509 68.2814C295.034 67.4722 298.309 65.8191 301.054 63.4642C301.392 63.1535 301.747 62.8628 302.119 62.5938C303.83 61.5133 304.505 61.6034 305.511 63.3141C305.615 63.5935 305.65 63.8944 305.61 64.1902C305.571 64.486 305.46 64.7675 305.286 65.0099C303.279 67.266 300.806 69.0583 298.037 70.2623C295.081 71.6964 291.915 72.6489 288.658 73.0836C284.951 73.4888 281.305 74.3142 277.598 74.7944C275.963 74.8933 274.324 74.8883 272.691 74.7794V74.7794Z" fill="#5C7A89"/>
<path d="M290.729 12.876H296.642C297.722 12.876 298.532 13.1911 298.622 14.4667C298.674 14.7149 298.673 14.9713 298.618 15.2188C298.563 15.4664 298.456 15.6994 298.304 15.9024C298.152 16.1055 297.959 16.2738 297.737 16.3963C297.515 16.5187 297.269 16.5925 297.017 16.6127C296.212 16.7938 295.394 16.9092 294.571 16.9579C291.869 16.9579 289.153 16.9579 286.452 17.0629C277.168 17.4531 267.883 17.8733 258.599 18.3235C254.907 18.5036 251.216 18.7737 247.524 18.9388C247.253 18.9705 246.978 18.9445 246.717 18.8625C246.457 18.7805 246.217 18.6443 246.013 18.4629C245.809 18.2815 245.645 18.059 245.533 17.8099C245.421 17.5609 245.363 17.2909 245.363 17.0179C245.365 16.4709 245.573 15.9447 245.946 15.5443C246.319 15.1438 246.828 14.8984 247.374 14.8569C250.99 14.6468 254.592 14.4817 258.194 14.3016C266.973 13.8664 275.752 13.4162 284.531 13.026C286.602 12.936 288.658 13.026 290.729 13.026V12.876Z" fill="#5C7A89"/>
<path d="M290.744 57.0262C290.712 58.9054 290.105 60.7297 289.005 62.2537C287.905 63.7776 286.365 64.928 284.591 65.5502C282.443 66.5492 280.156 67.2171 277.808 67.5311C275.709 67.7689 273.584 67.5456 271.58 66.8768C269.576 66.2081 267.743 65.11 266.208 63.6593C265.414 62.9601 264.767 62.1109 264.304 61.1605C263.84 60.2101 263.569 59.1773 263.506 58.1217C263.506 56.9812 264.242 55.6006 265.172 55.4505C265.468 55.4323 265.765 55.4732 266.045 55.5708C266.326 55.6685 266.583 55.8209 266.804 56.0192C267.025 56.2176 267.204 56.4579 267.331 56.7261C267.458 56.9943 267.53 57.2851 267.543 57.5815C267.813 60.0876 269.554 61.3632 271.58 62.3237C272.436 62.7317 273.364 62.9663 274.311 63.014C277.418 63.1641 280.554 63.3742 283.391 61.6934C285.086 60.6729 286.527 59.5624 286.677 57.3264C286.827 55.0903 287.292 54.43 288.898 54.415C290.504 54.4 290.729 54.6551 290.744 56.2459V57.0262Z" fill="#5C7A89"/>
<path d="M267.423 49.4177C267.58 48.1162 267.805 46.8238 268.098 45.5459C268.127 45.279 268.215 45.0219 268.356 44.7937C268.497 44.5655 268.688 44.3722 268.915 44.228C269.141 44.0838 269.397 43.9924 269.664 43.9608C269.93 43.9292 270.201 43.958 270.454 44.0453C270.992 44.2286 271.449 44.5948 271.745 45.0801C272.042 45.5654 272.158 46.1391 272.075 46.7015C271.91 48.5988 271.91 50.5068 272.075 52.4041C272.315 54.2349 273.366 54.9253 275.197 55.0453C278.678 55.2554 280.044 54.8352 279.849 50.2881C279.706 48.6092 279.435 46.9436 279.038 45.3058C278.926 44.7967 278.991 44.2644 279.223 43.7974C279.455 43.3305 279.84 42.9572 280.314 42.7396C280.555 42.6391 280.815 42.5926 281.076 42.6034C281.337 42.6142 281.592 42.6821 281.824 42.8023C282.056 42.9225 282.258 43.0921 282.417 43.299C282.577 43.506 282.688 43.7454 282.745 44.0002C284.184 47.3797 284.427 51.1487 283.435 54.6851C283.135 55.7581 282.543 56.7265 281.724 57.4819C280.905 58.2372 279.892 58.7498 278.798 58.9621C277.403 59.3496 275.939 59.4268 274.511 59.1882C273.082 58.9497 271.723 58.4013 270.529 57.5815C269.665 56.8613 268.954 55.9748 268.438 54.9746C267.922 53.9744 267.613 52.8809 267.528 51.7588C267.468 50.9796 267.468 50.1969 267.528 49.4177H267.423Z" fill="#5C7A89"/>
<path d="M259.079 46.4313C260.685 46.4313 261.48 47.1367 261.525 48.6674C261.503 49.4005 261.201 50.0974 260.683 50.6161C260.164 51.1347 259.467 51.4361 258.734 51.4586C258.425 51.4607 258.118 51.401 257.832 51.2831C257.546 51.1652 257.287 50.9915 257.069 50.7721C256.851 50.5528 256.679 50.2921 256.563 50.0054C256.447 49.7187 256.389 49.4118 256.393 49.1026C256.371 48.7447 256.425 48.3863 256.552 48.0511C256.68 47.716 256.877 47.4118 257.131 47.159C257.386 46.9062 257.691 46.7106 258.027 46.5851C258.363 46.4596 258.721 46.4072 259.079 46.4313V46.4313Z" fill="#5C7A89"/>
<path d="M294.135 46.9116C294.158 47.5766 293.927 48.2253 293.49 48.7267C293.053 49.2281 292.441 49.5448 291.779 49.6129C291.458 49.6359 291.136 49.5889 290.835 49.475C290.533 49.3611 290.261 49.183 290.035 48.9532C289.809 48.7234 289.637 48.4472 289.528 48.1439C289.42 47.8406 289.379 47.5174 289.408 47.1967C289.38 46.8544 289.425 46.51 289.541 46.1865C289.656 45.863 289.84 45.5679 290.078 45.3208C290.317 45.0737 290.605 44.8803 290.924 44.7535C291.244 44.6267 291.586 44.5695 291.929 44.5855C293.37 44.6005 294.045 45.3059 294.135 46.9116Z" fill="#5C7A89"/>
<path d="M245.288 26.6823C245.288 27.4926 244.508 28.0179 243.562 28.183C242.842 28.1179 242.161 27.8233 241.621 27.3424C241.08 26.8615 240.709 26.2197 240.561 25.5117C240.528 25.2749 240.547 25.0338 240.617 24.805C240.686 24.5761 240.803 24.3648 240.961 24.1854C241.119 24.0061 241.314 23.8628 241.532 23.7654C241.751 23.668 241.987 23.6187 242.226 23.6209C243.021 23.6736 243.769 24.0131 244.333 24.5762C244.896 25.1393 245.235 25.8877 245.288 26.6823V26.6823Z" fill="#5C7A89"/>
<path d="M289.378 9.00418C289.391 9.20469 289.362 9.40571 289.291 9.5938C289.22 9.78189 289.11 9.95269 288.968 10.0948C288.826 10.2369 288.655 10.347 288.467 10.4177C288.279 10.4884 288.078 10.5181 287.877 10.5049C287.239 10.4633 286.64 10.1819 286.2 9.71709C285.76 9.25231 285.513 8.63851 285.506 7.99872C285.506 6.84319 286.122 6.31795 287.487 6.31795C288.583 6.19789 289.408 7.18835 289.378 9.00418Z" fill="#5C7A89"/>
<path d="M280.209 6.09281C280.209 7.09828 279.429 7.69855 278.213 7.68355C277.95 7.72071 277.681 7.70001 277.426 7.62287C277.172 7.54572 276.937 7.414 276.739 7.23687C276.54 7.05974 276.382 6.84146 276.277 6.59723C276.171 6.353 276.12 6.08868 276.127 5.82269C276.115 5.57155 276.154 5.32055 276.242 5.08509C276.33 4.84963 276.466 4.63467 276.64 4.4534C276.814 4.27213 277.024 4.12837 277.255 4.03094C277.487 3.9335 277.737 3.88445 277.988 3.8868C278.563 3.92194 279.106 4.16522 279.514 4.57119C279.923 4.97716 280.17 5.51805 280.209 6.09281V6.09281Z" fill="#5C7A89"/>
<path d="M287.382 3.87178C286.794 3.85217 286.238 3.60177 285.833 3.17481C285.429 2.74786 285.209 2.17874 285.221 1.59073C285.221 0.405186 286.031 0.0900414 287.022 0C287.59 0.0364233 288.127 0.273767 288.537 0.669632C288.947 1.0655 289.202 1.59409 289.258 2.16099C289.257 2.39956 289.206 2.6353 289.109 2.85332C289.012 3.07134 288.871 3.2669 288.695 3.42766C288.519 3.58842 288.311 3.71089 288.085 3.78733C287.859 3.86378 287.62 3.89253 287.382 3.87178V3.87178Z" fill="#5C7A89"/>
<path d="M249.85 28.8433C251.156 28.8433 251.876 29.4736 251.906 30.6591C251.938 30.9197 251.914 31.1841 251.836 31.4348C251.757 31.6854 251.627 31.9164 251.452 32.1124C251.277 32.3084 251.063 32.4649 250.823 32.5714C250.583 32.6779 250.323 32.732 250.06 32.73C249.523 32.6401 249.033 32.3666 248.675 31.9561C248.316 31.5457 248.111 31.0237 248.094 30.479C248.07 30.2475 248.099 30.0135 248.181 29.7955C248.262 29.5774 248.393 29.3813 248.564 29.2226C248.734 29.0639 248.939 28.9471 249.162 28.8812C249.385 28.8154 249.621 28.8024 249.85 28.8433Z" fill="#5C7A89"/>
<path d="M253.482 27.4326C252.962 27.3051 252.489 27.0331 252.117 26.648C251.745 26.263 251.49 25.7806 251.381 25.2566C251.381 24.116 252.086 23.6658 253.137 23.6358C253.64 23.5901 254.141 23.7462 254.529 24.0698C254.918 24.3935 255.162 24.8581 255.207 25.3616C255.253 25.8651 255.097 26.3661 254.773 26.7545C254.45 27.1429 253.985 27.3868 253.482 27.4326V27.4326Z" fill="#5C7A89"/>
<mask id="mask1_74_9751" style="mask-type:alpha" maskUnits="userSpaceOnUse" x="153" y="69" width="4" height="5">
<path d="M156.777 70.6975C156.799 71.2727 156.599 71.8343 156.22 72.2669C155.84 72.6995 155.309 72.9703 154.736 73.0236C154.276 72.9292 153.861 72.6822 153.559 72.3227C153.257 71.9632 153.085 71.5122 153.07 71.0427C153.091 70.7842 153.163 70.5324 153.281 70.3017C153.4 70.071 153.563 69.8661 153.761 69.6987C153.959 69.5313 154.188 69.4048 154.436 69.3264C154.683 69.248 154.943 69.2193 155.201 69.2419C155.401 69.2318 155.601 69.2617 155.788 69.3298C155.976 69.3978 156.149 69.5027 156.295 69.6383C156.442 69.7739 156.56 69.9375 156.643 70.1193C156.726 70.3012 156.771 70.4978 156.777 70.6975Z" fill="#5C7A89"/>
</mask>
<g mask="url(#mask1_74_9751)">
</g>
</mask>
<g mask="url(#mask0_74_9751)">
<circle cx="299.388" cy="44.2704" r="66.7807" fill="#5C7A89"/>
</g>
</svg>
