<svg width="33" height="29" viewBox="0 0 33 29" fill="none" xmlns="http://www.w3.org/2000/svg">
<path d="M30.4969 0.359619H2.45559C1.25382 0.359619 0.452637 1.1608 0.452637 2.36257V26.398C0.452637 27.5998 1.25382 28.4009 2.45559 28.4009H30.4969C31.6987 28.4009 32.4999 27.5998 32.4999 26.398V2.36257C32.4999 1.1608 31.6987 0.359619 30.4969 0.359619ZM12.4703 6.36847C13.6721 6.36847 14.4733 7.16965 14.4733 8.37143C14.4733 9.5732 13.6721 10.3744 12.4703 10.3744C11.2686 10.3744 10.4674 9.5732 10.4674 8.37143C10.4674 7.16965 11.2686 6.36847 12.4703 6.36847ZM4.45854 22.3921L8.46444 14.3803L14.4733 18.3862L20.4822 10.3744L28.494 22.3921H4.45854Z" fill="#1A051D"/>
</svg>
