<svg width="83" height="104" viewBox="0 0 83 104" fill="none" xmlns="http://www.w3.org/2000/svg">
<path d="M41.587 0.462769C18.7142 0.462769 0.172119 19.0048 0.172119 41.8776C0.172119 43.2581 0.172119 44.6386 0.344681 45.8466V46.3643C3.79592 79.151 41.587 104 41.587 104C41.587 104 79.3781 78.8059 82.6568 46.5368V45.8466C82.8293 44.4661 82.8293 43.2581 82.8293 41.8776C82.8295 19.0721 64.3924 0.557792 41.587 0.462769ZM41.587 59.1338C32.0567 59.1338 24.3308 51.408 24.3308 41.8776C24.3308 32.3473 32.0567 24.6214 41.587 24.6214C51.1173 24.6214 58.8432 32.3473 58.8432 41.8776C58.8432 51.408 51.1173 59.1338 41.587 59.1338Z" fill="#1A051D"/>
</svg>
