<svg width="35" height="24" viewBox="0 0 35 24" fill="none" xmlns="http://www.w3.org/2000/svg">
<path d="M17.3631 0.197632C9.51941 0.197632 2.82086 5.07643 0.106934 11.9632C2.82086 18.85 9.51941 23.7288 17.3631 23.7288C25.2069 23.7288 31.9054 18.85 34.6193 11.9632C31.9054 5.07643 25.2069 0.197632 17.3631 0.197632ZM17.3631 19.8069C13.0334 19.8069 9.51941 16.293 9.51941 11.9632C9.51941 7.63348 13.0334 4.1195 17.3631 4.1195C21.6929 4.1195 25.2069 7.63348 25.2069 11.9632C25.2069 16.293 21.6929 19.8069 17.3631 19.8069ZM17.3631 7.25699C14.759 7.25699 12.6569 9.35911 12.6569 11.9632C12.6569 14.5673 14.759 16.6695 17.3631 16.6695C19.9672 16.6695 22.0694 14.5673 22.0694 11.9632C22.0694 9.35911 19.9672 7.25699 17.3631 7.25699Z" fill="#1A051D"/>
</svg>
